<svg width="800" height="800" viewBox="0 0 800 800" fill="none" xmlns="http://www.w3.org/2000/svg">
  <rect width="800" height="800" rx="48" fill="url(#bg)"/>
  <circle cx="286" cy="372" r="146" fill="#F8E2CF" stroke="#AD6947" stroke-width="4"/>
  <circle cx="514" cy="372" r="146" fill="#FFF7EE" stroke="#AD6947" stroke-width="4"/>
  <path d="M286 372C286 314.01 333.01 267 391 267H409C466.99 267 514 314.01 514 372V390C514 447.99 466.99 495 409 495H391C333.01 495 286 447.99 286 390V372Z" fill="#A14F31" opacity="0.12"/>
  <path d="M256 230L284 242L296 270L308 242L336 230L308 218L296 190L284 218L256 230Z" fill="#A14F31"/>
  <path d="M497 548L513 582L547 598L513 614L497 648L481 614L447 598L481 582L497 548Z" fill="#A14F31"/>
  <path d="M202 514C230 470 274 444 323 444C378 444 426 476 451 524" stroke="#A14F31" stroke-width="8" stroke-linecap="round"/>
  <path d="M348 318C365 300 387 290 410 290C451 290 489 322 502 366" stroke="#A14F31" stroke-width="8" stroke-linecap="round"/>
  <circle cx="222" cy="166" r="6" fill="#A14F31"/>
  <circle cx="568" cy="188" r="6" fill="#A14F31"/>
  <circle cx="606" cy="290" r="6" fill="#A14F31"/>
  <circle cx="180" cy="598" r="6" fill="#A14F31"/>
  <defs>
    <linearGradient id="bg" x1="112" y1="104" x2="676" y2="712" gradientUnits="userSpaceOnUse">
      <stop stop-color="#FFF8F0"/>
      <stop offset="1" stop-color="#F1D5BD"/>
    </linearGradient>
  </defs>
</svg>
